<svg width="187" height="50" viewBox="0 0 187 50" fill="none" xmlns="http://www.w3.org/2000/svg">
<path fill-rule="evenodd" clip-rule="evenodd" d="M0.0120305 4.3509V8.68537L0.977774 7.8964C1.50899 7.46254 2.58919 6.69969 3.37834 6.20129C4.98015 5.18974 6.31817 3.94304 6.94673 2.87683C7.29804 2.28069 7.96667 0.794516 8.12118 0.266356L8.19436 0.0164385H4.10314H0.0120305V4.3509ZM11.0491 0.168832C11.0491 0.439632 10.4992 2.02589 10.1162 2.86028L9.74374 3.67157L10.3689 3.44142C12.206 2.76487 14.052 1.68345 15.2432 0.585808L15.8502 0.0265466L13.4497 0.0214366C11.4862 0.0173269 11.0491 0.0442065 11.0491 0.168832ZM32.3164 0.678332C34.366 2.07343 36.4212 4.14408 37.7785 6.18108C38.1449 6.7309 38.4641 7.20163 38.488 7.22707C38.5119 7.2525 38.5314 5.64048 38.5314 3.64491V0.0164385H34.9377H31.3441L32.3164 0.678332ZM41.7321 8.03236C41.7321 12.441 41.7499 16.0274 41.7718 16.002C41.7935 15.9764 44.0367 13.1316 46.7564 9.67993C49.4763 6.22828 51.8797 3.1824 52.0974 2.91115C52.398 2.53672 52.4402 2.43886 52.2725 2.50418C51.3718 2.85506 50.3124 3.02101 49.0166 3.01423C48.2578 3.01023 47.4499 2.97136 47.2212 2.92793L46.8056 2.84884L47.2917 2.01378C47.5592 1.55449 48.0116 0.917253 48.2971 0.59758L48.8163 0.0164385H45.2743H41.7321V8.03236ZM73.5848 0.636791C75.6843 1.96235 77.9004 4.06111 79.2846 6.03479C79.6601 6.57039 80.0314 7.03324 80.1095 7.06345C80.2235 7.10744 80.2515 6.41633 80.2515 3.56738V0.0164385H76.4268H72.6023L73.5848 0.636791ZM91.5093 14.1784V28.3405H93.3856H95.2619V14.1784V0.0164385H93.3856H91.5093V14.1784ZM102.215 14.1702V28.3405H104.092H105.968V24.1196V19.8988H111.196C116.958 19.8988 117.621 19.8435 119.194 19.2322C120.454 18.7425 121.35 18.1674 122.388 17.1823C123.771 15.8693 124.688 14.3748 125.199 12.6002C125.414 11.8524 125.448 11.4858 125.443 9.90208C125.438 8.20463 125.415 7.9997 125.13 7.12521C124.41 4.91772 123.028 3.02212 121.233 1.77908C120.474 1.25337 119.011 0.60169 117.986 0.333112C117.088 0.0974116 116.84 0.0888586 109.638 0.0450952L102.215 0V14.1702ZM130.501 13.9828C126.967 21.6658 124.044 28.0403 124.004 28.1485C123.937 28.3332 124.061 28.3436 126.001 28.3151L128.069 28.2849L133.128 17.2885C135.91 11.2405 138.343 5.9677 138.535 5.57117L138.883 4.85018L139.133 5.34902C139.528 6.1372 144.046 15.9813 144.046 16.0539C144.046 16.0898 142.396 16.1325 140.379 16.1486L136.712 16.1778L135.865 18.0105L135.018 19.8433L140.442 19.8747L145.867 19.9062L147.798 24.1228L149.73 28.3396L151.796 28.34C153.64 28.3405 153.855 28.3215 153.794 28.1636C153.757 28.0663 150.835 21.706 147.299 14.0294L140.872 0.0719758L138.899 0.0429851L136.927 0.0139945L130.501 13.9828ZM156.481 0.0905261C156.44 0.131179 156.407 6.50408 156.407 14.2525V28.3405H158.284H160.16V18.3771C160.16 11.7498 160.197 8.45078 160.27 8.52453C160.331 8.58551 162.372 12.9565 164.806 18.238C167.24 23.5194 169.285 27.953 169.349 28.0905C169.465 28.3366 169.498 28.3405 171.518 28.3389L173.57 28.3373L178.15 18.3785L182.731 8.41968L182.759 18.3801L182.787 28.3405H184.663H186.538V14.176V0.0115505L184.481 0.0417631L182.424 0.0719758L177.031 11.7848C174.065 18.2269 171.598 23.5381 171.549 23.5875C171.5 23.6369 169.009 18.3536 166.013 11.8469L160.565 0.0164385H158.56C157.457 0.0164385 156.521 0.0497617 156.481 0.0905261ZM62.5922 6.082V11.8144L62.8957 11.7364C64.4522 11.3364 64.8158 11.2973 67.007 11.2945C69.538 11.2914 70.2866 11.405 72.2374 12.0884C75.0966 13.09 77.8132 15.0266 79.5893 17.3296L80.1963 18.1167L80.2288 17.2068C80.3721 13.1837 77.9715 9.93484 73.9052 8.64938C72.5833 8.23151 71.5223 8.09689 69.8962 8.14099C68.2182 8.18631 68.2177 8.18109 69.8215 7.40534C71.3084 6.68624 72.769 6.29593 74.4644 6.16475L75.4024 6.09222L75.0401 5.78321C74.0275 4.91949 72.0849 4.07777 70.4285 3.78487C69.3887 3.60104 67.1561 3.6007 66.3085 3.7842C65.9547 3.86073 65.6463 3.90449 65.6233 3.88139C65.5265 3.78398 67.5266 2.62369 68.457 2.23749C69.3057 1.88505 69.4333 1.80063 69.2577 1.70733C68.9514 1.5446 67.04 0.930249 66.4 0.788962C65.6189 0.616352 63.6179 0.354439 63.0613 0.351884L62.5922 0.349662V6.082ZM28.6135 2.07587C29.8149 3.73344 30.3682 5.8283 30.2003 8.08267C30.1085 9.31527 30.127 9.30583 28.9261 8.72724C27.8402 8.20419 27.0106 7.54974 26.4316 6.75955L25.9602 6.1161L25.582 6.93972C25.1772 7.82143 24.5509 8.799 23.938 9.50576L23.5592 9.94251L23.2241 9.45022C22.5203 8.41634 22.047 7.2374 21.9176 6.19585L21.8414 5.58139L21.361 5.93671L20.8807 6.29215L20.8764 28.1461L20.8721 50H29.7017H38.5314L38.5313 32.9778C38.5311 14.7661 38.5509 15.4822 37.9847 13.2535C37.5201 11.4246 36.4245 9.08557 35.2547 7.42489C34.4351 6.26138 32.2243 4.03389 31.0769 3.2155C30.5887 2.86739 29.7449 2.34456 29.2019 2.05377L28.2143 1.52516L28.6135 2.07587ZM16.8436 2.91715C15.7717 3.84918 14.622 4.59915 13.2311 5.2736L12.047 5.84785L12.0446 8.54141L12.0424 11.235L13.2841 11.2354C14.5197 11.2359 15.9871 11.4241 17.0919 11.724L17.6713 11.8813V7.05957C17.6713 4.40766 17.6589 2.2396 17.6437 2.2416C17.6286 2.2436 17.2685 2.54761 16.8436 2.91715ZM117.276 4.0741C118.264 4.33302 119.192 4.88306 119.987 5.68124C121.866 7.56762 122.3 10.4576 121.061 12.8366C120.558 13.8018 119.341 14.9994 118.412 15.4441C117.074 16.0843 116.705 16.1181 111.073 16.1204L105.968 16.1223V10.0132V3.90405H111.298C115.727 3.90405 116.737 3.93282 117.276 4.0741ZM51.1688 8.5884C49.287 10.9769 47.7308 12.9744 47.7106 13.0272C47.6903 13.08 47.889 13.124 48.1521 13.1249C48.8503 13.1272 49.9282 13.4095 50.6877 13.7887C51.4821 14.1853 51.8532 14.438 52.6616 15.1326L53.2713 15.6566L54.4275 15.6C56.211 15.5126 57.6021 15.9259 58.8402 16.9107L59.3915 17.3493V11.7591V6.16908L59.0068 5.79398C58.7952 5.58761 58.6078 5.44032 58.5904 5.46664C58.5728 5.49308 58.4709 5.76455 58.3638 6.07C58.2566 6.37546 58.0095 6.8984 57.8145 7.23207C57.4186 7.90951 55.6629 9.8191 55.5185 9.72924C55.3399 9.61806 54.768 7.5995 54.6391 6.62438C54.5675 6.08266 54.541 5.32403 54.5803 4.93837C54.6196 4.55283 54.6379 4.23916 54.621 4.24149C54.6041 4.24382 53.0507 6.19996 51.1688 8.5884ZM7.84371 7.05701C6.82345 7.28449 6.72886 7.33314 4.81006 8.61772C2.49968 10.1647 1.48581 11.1108 0.87535 12.2902C0.263344 13.4722 0.113241 14.1723 0.0530886 16.1223L0 17.8439L0.354952 17.3996C0.550198 17.1552 1.21099 16.4536 1.82343 15.8405C3.58363 14.0779 5.71025 12.774 8.14657 11.9633L9.22798 11.6034L9.25778 9.19775C9.28549 6.95449 9.27434 6.79299 9.09223 6.80709C8.98472 6.81542 8.42294 6.92794 7.84371 7.05701ZM12.0173 20.9309L11.9872 27.8817L11.6624 28.2228C11.0415 28.8751 10.1139 28.8727 9.56616 28.2176L9.28317 27.8792V21.2157V14.5522L9.03483 14.6272C7.0081 15.2392 5.08367 16.4607 3.4535 18.1696C1.91802 19.779 0.76807 21.8122 0.235421 23.8584C0.0174389 24.6961 0.0120305 25.023 0.0120305 37.3584V50H8.84168H17.6713V32.415V14.8299L17.0919 14.6467C15.9645 14.2903 14.8402 14.1036 13.4521 14.0423L12.0473 13.9801L12.0173 20.9309ZM64.91 14.1829C64.394 14.2651 63.6738 14.4247 63.3096 14.5377L62.6474 14.7429L62.6195 32.3715L62.5915 50H71.4215H80.2515V39.0689C80.2515 27.2671 80.251 27.2538 79.6621 25.787C78.5685 23.062 76.1284 21.1658 72.6949 20.3727C72.1748 20.2527 71.3624 20.1907 70.2334 20.1849C68.3228 20.1754 68.3246 20.1787 69.8215 19.4584C71.5555 18.624 73.2984 18.2346 75.3246 18.229L76.6645 18.2252L75.9461 17.5333C73.1535 14.8435 68.8888 13.5488 64.91 14.1829ZM46.2392 16.106C45.055 16.5009 44.5802 16.9281 42.7973 19.2034L41.7321 20.5628V35.2814V50H50.5618H59.3915V34.8263V19.6525L59.0879 19.7298C57.8634 20.0417 56.3163 20.0906 55.1974 19.8527C54.8028 19.7688 54.4694 19.7097 54.4564 19.7214C54.4434 19.7331 54.5131 19.9901 54.6111 20.2928C54.899 21.182 54.8665 23.5767 54.5488 24.8684C54.4101 25.433 54.2502 25.9237 54.1936 25.9589C54.0474 26.0498 52.6912 25.1146 52.1413 24.5439C51.5421 23.922 50.9655 22.9466 50.6514 22.0231C50.3267 21.0688 50.3027 19.011 50.6033 17.9097L50.7977 17.1979L50.4865 16.938C50.3154 16.7949 49.8563 16.5212 49.4661 16.3295C48.5406 15.8749 47.2093 15.7827 46.2392 16.106ZM149.619 34.184C148.527 34.8798 147.583 35.4662 147.522 35.4873C147.42 35.5229 148.394 37.0608 148.6 37.1888C148.65 37.2203 149.273 36.8213 149.983 36.3023L151.275 35.3585L151.827 35.877C152.13 36.1622 152.59 36.5932 152.849 36.8348L153.32 37.2741L154.192 36.4008L155.065 35.5275L154.053 34.7489C153.496 34.3207 152.744 33.7282 152.38 33.4324C152.017 33.1365 151.694 32.9001 151.663 32.9068C151.632 32.9135 150.712 33.4883 149.619 34.184ZM171.694 33.5972C171.079 33.8393 170.867 34.0111 170.645 34.4489C170.173 35.38 170.479 36.4342 171.291 36.6793C172.182 36.9478 173.222 36.5599 173.667 35.7931C173.927 35.3442 173.967 34.497 173.747 34.0829C173.45 33.5235 172.47 33.2916 171.694 33.5972ZM93.0799 42.558L89.2124 49.7779H90.7893H92.3661L93.2128 48.1117L94.0595 46.4456H96.5178H98.9761L99.171 47.5841C99.2783 48.2104 99.4152 48.9601 99.4753 49.2502L99.5847 49.7779H101.121C102.276 49.7779 102.657 49.7434 102.657 49.639C102.657 49.5627 102.002 46.3138 101.202 42.4192L99.746 35.3382H98.3467H96.9474L93.0799 42.558ZM111.676 38.6593C110.547 39.1181 109.47 40.217 108.376 42.0264C108.07 42.5326 107.856 42.8468 107.9 42.7246C108.445 41.2017 108.754 39.6988 108.651 39.0617L108.588 38.6704H107.184H105.779L105.713 39.7534C105.677 40.3491 105.322 42.8034 104.925 45.2074C104.527 47.6115 104.202 49.6232 104.202 49.6781C104.202 49.733 104.863 49.7779 105.671 49.7779H107.139L107.336 48.5325C107.608 46.8195 107.978 45.5882 108.614 44.2797C109.365 42.7369 110.196 41.7613 111.066 41.4014C111.532 41.2088 111.897 41.3398 111.995 41.7347C112.053 41.9678 111.233 47.542 110.856 49.4724L110.797 49.7779H112.28H113.764L114.006 48.3761C114.592 44.9725 116.075 42.143 117.646 41.4258C118.087 41.2246 118.142 41.2215 118.391 41.3861C118.757 41.6268 118.746 41.8375 118.214 45.0347C117.8 47.5164 117.648 49.3665 117.834 49.6684C117.872 49.7308 118.491 49.7779 119.274 49.7779H120.647V49.0694C120.647 48.6798 120.896 46.8543 121.199 45.0126C121.903 40.742 121.908 40.0572 121.241 39.1523C120.69 38.4056 119.189 38.2266 118.068 38.774C117.04 39.2757 115.556 40.9358 114.81 42.4192C114.679 42.6787 114.554 42.8912 114.531 42.8912C114.508 42.8912 114.609 42.5145 114.754 42.0539C115.237 40.5234 115.019 39.2965 114.169 38.7681C113.611 38.4209 112.394 38.3678 111.676 38.6593ZM128.119 38.5635C126.623 38.9409 125.116 40.2604 124.319 41.8916C123.544 43.4768 123.354 44.3413 123.353 46.2866C123.351 47.9305 123.357 47.9719 123.684 48.6154C124.163 49.5585 124.807 49.9465 125.881 49.9392C126.552 49.9348 126.761 49.8809 127.36 49.5586C128.216 49.0977 129.232 48.023 129.914 46.8553C130.186 46.3915 130.421 46.0262 130.438 46.0435C130.456 46.0607 130.34 46.4457 130.182 46.8989C129.963 47.5275 129.891 47.9601 129.879 48.7226L129.863 49.7223L131.254 49.7533L132.644 49.7842L132.713 48.8092C132.768 48.0354 134.015 40.0707 134.288 38.7501L134.352 38.441L133.053 38.4725L131.753 38.5038L131.658 38.8723C131.606 39.075 131.529 39.2247 131.486 39.2049C131.443 39.1851 131.135 39.0236 130.801 38.846C130.317 38.5881 130.027 38.5163 129.366 38.4903C128.911 38.4723 128.35 38.5053 128.119 38.5635ZM149.54 38.6138C147.305 39.1836 145.6 41.0308 144.919 43.6197C144.576 44.9232 144.573 46.9346 144.912 47.7978C145.51 49.3229 147.038 50.1361 148.951 49.9479C152.422 49.6063 154.746 46.6612 154.783 42.558C154.792 41.4857 154.755 41.1811 154.551 40.661C154.224 39.8262 153.659 39.1906 152.919 38.8264C152.407 38.5742 152.131 38.5188 151.239 38.4888C150.557 38.4659 149.943 38.511 149.54 38.6138ZM163.472 38.6335C162.217 39.0754 160.947 40.3729 159.795 42.3914C159.621 42.6968 159.511 42.8468 159.551 42.7246C159.983 41.4002 160.27 40.0853 160.27 39.4287V38.6704H158.852H157.434L157.364 39.6423C157.325 40.1769 156.97 42.5796 156.575 44.9817C156.179 47.3837 155.855 49.4455 155.855 49.5635C155.855 49.7643 155.946 49.7779 157.288 49.7779C158.685 49.7779 158.722 49.7715 158.774 49.5279C158.803 49.3905 158.931 48.7032 159.059 48.0007C159.35 46.407 159.7 45.3441 160.353 44.0707C160.954 42.9003 161.976 41.7348 162.678 41.4214C163.118 41.2244 163.174 41.2218 163.423 41.3861C163.798 41.6336 163.78 42.0466 163.25 45.2238C162.841 47.6814 162.713 49.1752 162.876 49.6021C162.932 49.7491 163.164 49.7779 164.294 49.7779H165.646L165.711 48.8615C165.746 48.3574 166.005 46.5706 166.286 44.8906C166.955 40.8912 166.949 39.8632 166.254 39.0753C165.734 38.4868 164.462 38.2847 163.472 38.6335ZM179.006 38.5686C176.81 39.0897 174.902 41.4925 174.351 44.4307C173.86 47.053 174.336 49.0398 175.623 49.7356C176.19 50.0427 177.386 50.0108 178.095 49.6698C178.881 49.292 180.18 47.9246 180.896 46.7211C181.223 46.1725 181.452 45.8236 181.406 45.9458C180.93 47.2179 180.771 47.909 180.758 48.7782L180.744 49.7223L182.135 49.7533L183.525 49.7843L183.596 48.8647C183.652 48.1405 184.804 40.779 185.164 38.8458L185.24 38.4409L183.937 38.4723L182.634 38.5038L182.541 38.8648C182.432 39.2896 182.418 39.2933 182.01 39.0013C181.296 38.4897 180.078 38.3143 179.006 38.5686ZM136.383 38.9203C136.317 39.2393 136.099 40.6093 136.099 40.7043C136.099 40.7438 137.07 40.7897 138.257 40.8062L140.414 40.8363L137.377 44.7786C134.989 47.878 134.368 48.7497 134.474 48.8557C134.548 48.9299 134.928 49.2136 135.318 49.4862L136.027 49.9819L136.685 49.1408L137.344 48.2998L137.507 48.6223C137.935 49.4705 138.839 50.0025 139.844 49.9983C140.752 49.9946 142.8 49.2732 143.167 48.828C143.253 48.7238 143.205 48.4177 142.99 47.7041C142.828 47.1646 142.678 46.694 142.658 46.6582C142.637 46.6224 142.202 46.8044 141.692 47.0624C141.181 47.3204 140.515 47.5659 140.212 47.6079C139.625 47.689 138.848 47.5371 138.665 47.3057C138.586 47.2061 138.891 46.734 139.758 45.6126C143.757 40.4437 143.711 40.5086 143.83 39.8163C143.891 39.461 143.966 39.0578 143.996 38.9203L144.05 38.6704H140.242H136.434L136.383 38.9203ZM170.04 38.9203C169.759 40.1563 168.548 48.0509 168.548 48.6529C168.548 49.8339 168.474 49.7779 170.034 49.7779H171.385L171.459 48.8169C171.518 48.036 172.814 39.8265 173.02 38.9203C173.077 38.6706 173.076 38.6704 171.587 38.6704C170.133 38.6704 170.096 38.6763 170.04 38.9203ZM98.1814 41.7013C98.3968 43.0322 98.573 44.1444 98.573 44.1727C98.573 44.2009 97.828 44.2241 96.9175 44.2241C95.8778 44.2241 95.2619 44.1825 95.2619 44.112C95.2619 43.9229 97.7208 39.0517 97.7564 39.1702C97.7748 39.2313 97.9661 40.3703 98.1814 41.7013ZM130.443 40.9434C131.102 41.2523 131.125 41.3331 130.817 42.2351C130.318 43.6912 129.27 45.4824 128.272 46.5808C127.36 47.5848 126.685 47.7207 126.397 46.9581C126.056 46.0516 126.606 43.3274 127.374 42.1224C128.245 40.7565 129.233 40.3768 130.443 40.9434ZM151.386 40.958C152.014 41.6402 151.846 44.2308 151.062 45.9591C150.767 46.6077 150.112 47.3843 149.661 47.6191C149.308 47.8026 148.541 47.8295 148.242 47.6687C147.422 47.2271 147.559 44.1213 148.478 42.3031C148.769 41.7281 149.439 41.0002 149.84 40.8239C150.022 40.7438 150.385 40.6765 150.646 40.6741C151.018 40.6706 151.177 40.7318 151.386 40.958ZM181.234 40.8984C182.058 41.2744 182.047 41.2321 181.624 42.4232C181.004 44.1696 179.832 46.0257 178.738 46.9949C178.304 47.3792 178.152 47.4506 177.825 47.423C177.488 47.3944 177.414 47.3349 177.296 47.001C177.005 46.1715 177.39 43.853 178.032 42.5747C178.866 40.9115 179.983 40.3271 181.234 40.8984Z" fill="white"/>
</svg>
